<svg width="40" height="40" viewBox="0 0 40 40" fill="none" xmlns="http://www.w3.org/2000/svg">
<path d="M20.9731 21.2117V24.2167C21.9315 23.9817 22.6398 23.365 22.6398 22.6567C22.6398 21.995 22.0848 21.5317 20.9731 21.2117Z" fill="#474747"/>
<path d="M17.6396 17.6567C17.6396 18.3183 18.1963 18.78 19.3063 19.1017V16.0967C18.348 16.3317 17.6396 16.9483 17.6396 17.6567Z" fill="#474747"/>
<path d="M38.4731 7.65668H1.80648C1.34648 7.65668 0.973145 8.03001 0.973145 8.49001V31.8233C0.973145 32.2833 1.34648 32.6567 1.80648 32.6567H38.4731C38.9331 32.6567 39.3065 32.2833 39.3065 31.8233V8.49001C39.3065 8.02834 38.9348 7.65668 38.4731 7.65668ZM8.47314 29.3233H5.13981C4.67981 29.3233 4.30648 28.95 4.30648 28.49C4.30648 28.03 4.67981 27.6567 5.13981 27.6567H8.47314C8.93314 27.6567 9.30648 28.03 9.30648 28.49C9.30648 28.95 8.93481 29.3233 8.47314 29.3233ZM20.9731 25.9217V26.8233C20.9731 27.2833 20.5998 27.6567 20.1398 27.6567C19.6798 27.6567 19.3065 27.2833 19.3065 26.8233V25.925C17.4831 25.64 16.1048 24.4283 15.9765 22.8867C15.9381 22.4283 16.2781 22.025 16.7365 21.9867C17.1881 21.9467 17.5981 22.2883 17.6365 22.7467C17.6931 23.4233 18.3881 23.9967 19.3065 24.22V20.8217C17.0648 20.27 15.9731 19.2167 15.9731 17.6567C15.9731 16.0467 17.4065 14.7017 19.3065 14.3917V13.49C19.3065 13.03 19.6798 12.6567 20.1398 12.6567C20.5998 12.6567 20.9731 13.03 20.9731 13.49V14.3883C22.7965 14.6733 24.1731 15.8833 24.3031 17.4267C24.3415 17.885 24.0015 18.2883 23.5431 18.3267C23.0998 18.3733 22.6815 18.025 22.6431 17.5667C22.5865 16.89 21.8915 16.3183 20.9731 16.0933V19.4917C23.2148 20.0433 24.3065 21.095 24.3065 22.6583C24.3065 24.2667 22.8731 25.6117 20.9731 25.9217ZM35.1398 12.6567H31.8065C31.3465 12.6567 30.9731 12.2833 30.9731 11.8233C30.9731 11.3633 31.3465 10.99 31.8065 10.99H35.1398C35.5998 10.99 35.9731 11.3633 35.9731 11.8233C35.9731 12.2833 35.6015 12.6567 35.1398 12.6567Z" fill="#474747"/>
</svg>
