<svg width="40" height="40" viewBox="0 0 40 40" fill="none" xmlns="http://www.w3.org/2000/svg">
<path d="M9.66667 10.1666C8.33333 8.83331 2.66667 8.49998 0.833333 8.33331C0.666667 8.33331 0.5 8.33331 0.333333 8.49998C0.166667 8.66665 0 8.99998 0 9.16665V24.1666C0 24.6666 0.333333 25 0.833333 25H5.83333C6.16667 25 6.5 24.8333 6.66667 24.5C6.66667 24 9.66667 15.1666 10 10.8333C10 10.6666 10 10.3333 9.66667 10.1666Z" fill="#474747"/>
<path d="M23.0001 12.5C20.0001 11.1666 18.6667 11.8333 16.0001 14.5C14.8334 15.6666 14.0001 17.3333 14.1667 18C14.1667 18.1666 14.1667 18.1666 14.5001 18.3333C15.3334 18.6666 16.5001 18.8333 17.6667 17C17.8334 16.8333 18.0001 16.6666 18.3334 16.6666C18.8334 16.6666 19.0001 16.5 19.5001 16.3333C19.8334 16.1666 20.1667 16 20.6667 15.8333C20.8334 15.8333 20.8334 15.8333 21.0001 15.8333C21.1667 15.8333 21.5001 16 21.6667 16C22.5001 16.8333 24.0001 18 25.5001 19.3333C27.8334 21.1666 30.1667 23.1666 31.3334 24.6666H31.5001C30.3334 21.3333 28.3334 15.6666 27.5001 14.1666C25.8334 13.6666 24.3334 13 23.0001 12.5Z" fill="#474747"/>
<path d="M39.1668 10C32.6668 10 29.0002 11.6667 28.8335 11.6667C28.6668 11.8333 28.5002 12 28.3335 12.1667C28.3335 12.3333 28.3335 12.6667 28.5002 12.8333C29.5002 14.5 32.8335 23.6667 33.3335 26C33.5002 26.3333 33.8335 26.6667 34.1668 26.6667H39.1668C39.6668 26.6667 40.0002 26.3333 40.0002 25.8333V10.8333C40.0002 10.3333 39.6668 10 39.1668 10Z" fill="#474747"/>
<path d="M24.1665 20.6666C22.8332 19.5 21.4998 18.5 20.4998 17.6666C20.3332 17.8333 19.9998 17.8333 19.9998 18C19.4998 18.1666 19.3332 18.3333 18.6665 18.3333C17.3332 20 15.6665 20.6666 13.8332 20C12.9998 19.8333 12.4998 19.1666 12.3332 18.5C11.9998 16.8333 13.4998 14.5 14.6665 13.3333H11.3332C10.6665 16.6666 9.49984 21 8.6665 23.3333C9.33317 24 9.99984 24.8333 10.4998 25.1666C13.6665 27.8333 17.3332 30.5 17.9998 31C18.4998 31.3333 19.4998 31.6666 19.9998 31.6666C20.1665 31.6666 20.3332 31.6666 20.4998 31.6666L17.8332 29C17.4998 28.6666 17.4998 28.1666 17.8332 27.8333C18.1665 27.5 18.6665 27.5 18.9998 27.8333L22.3332 31.1666C22.6665 31.5 22.9998 31.3333 23.3332 31.3333C23.8332 31.1666 23.9998 30.8333 24.1665 30.3333L20.3332 26.5C19.9998 26.1666 19.9998 25.6666 20.3332 25.3333C20.6665 25 21.1665 25 21.4998 25.3333L25.6665 29.5C25.8332 29.6666 26.4998 29.6666 26.9998 29.5C27.1665 29.3333 27.4998 29.1666 27.6665 28.8333L22.9998 24.1666C22.6665 23.8333 22.6665 23.3333 22.9998 23C23.3332 22.6666 23.8332 22.6666 24.1665 23L28.9998 27.8333C29.3332 28 29.6665 27.8333 29.9998 27.6666C30.1665 27.5 30.4998 27 30.1665 26.3333C29.4998 24.8333 26.6665 22.6666 24.1665 20.6666Z" fill="#474747"/>
</svg>
