<svg width="30" height="30" viewBox="0 0 30 30" fill="none" xmlns="http://www.w3.org/2000/svg">
<g clip-path="url(#clip0_213_804)">
<path d="M9.375 13.125H3.125C1.4025 13.125 0 14.5275 0 16.25V26.25C0 27.9725 1.4025 29.375 3.125 29.375H6.875C8.5975 29.375 10 27.9725 10 26.25V13.75C10 13.405 9.72 13.125 9.375 13.125ZM30 17.8125C30 17.0613 29.7013 16.3612 29.1875 15.8438C29.7712 15.205 30.0688 14.3475 29.9862 13.4575C29.84 11.8687 28.4075 10.625 26.7262 10.625H19.0063C19.3875 9.46375 20 7.335 20 5.625C20 2.91375 17.6962 0.625 16.25 0.625C14.9513 0.625 14.0238 1.355 13.9838 1.38625C13.835 1.505 13.75 1.685 13.75 1.875V6.1125L10.94 12.2C10.8538 12.3888 10.865 12.6075 10.9725 12.785C11.1562 13.0887 11.25 13.4137 11.25 13.7487V26.2488C11.25 26.55 11.215 26.8563 11.1425 27.1875C11.0687 27.5238 11.28 27.8562 11.615 27.9312C12.1637 28.055 12.7013 28.1238 13.125 28.1238H24.5988C25.96 28.1238 27.1513 27.2063 27.43 25.94C27.5737 25.2888 27.4888 24.6313 27.205 24.0625C28.1287 23.5975 28.75 22.645 28.75 21.5613C28.75 21.12 28.6487 20.695 28.4562 20.3113C29.3787 19.8475 30 18.8962 30 17.8125Z" fill="#474747"/>
</g>
<defs>
<clipPath id="clip0_213_804">
<rect width="30" height="30" fill="white"/>
</clipPath>
</defs>
</svg>
