<svg width="30" height="30" viewBox="0 0 30 30" fill="none" xmlns="http://www.w3.org/2000/svg">
<g clip-path="url(#clip0_213_809)">
<path d="M15 0C6.72875 0 0 6.72875 0 15C0 23.2712 6.72875 30 15 30C23.2712 30 30 23.2712 30 15C30 6.72875 23.2712 0 15 0ZM17.4525 19.6138C17.42 19.69 17.3737 19.76 17.3162 19.8175L14.8175 22.3162C14.695 22.4388 14.535 22.5 14.375 22.5C14.215 22.5 14.055 22.4387 13.9325 22.3175C13.6888 22.0737 13.6888 21.6775 13.9325 21.4338L15.3663 20H10C7.2425 20 5 17.7575 5 15C5 12.2425 7.2425 10 10 10C10.345 10 10.625 10.28 10.625 10.625C10.625 10.97 10.345 11.25 10 11.25C7.9325 11.25 6.25 12.9325 6.25 15C6.25 17.0675 7.9325 18.75 10 18.75H15.3663L13.9338 17.3175C13.69 17.0737 13.69 16.6775 13.9338 16.4338C14.1775 16.19 14.5738 16.19 14.8175 16.4338L17.3162 18.9325C17.3737 18.99 17.42 19.06 17.4525 19.1362C17.5163 19.2887 17.5163 19.4613 17.4525 19.6138ZM20 20C19.655 20 19.375 19.72 19.375 19.375C19.375 19.03 19.655 18.75 20 18.75C22.0675 18.75 23.75 17.0675 23.75 15C23.75 12.9325 22.0675 11.25 20 11.25H14.6337L16.0662 12.6825C16.31 12.9262 16.31 13.3225 16.0662 13.5662C15.945 13.6887 15.785 13.75 15.625 13.75C15.465 13.75 15.305 13.6888 15.1825 13.5675L12.6838 11.0687C12.6263 11.0112 12.58 10.9413 12.5475 10.865C12.4838 10.7125 12.4838 10.54 12.5475 10.3875C12.5788 10.31 12.625 10.2413 12.6838 10.1838L15.1825 7.685C15.4262 7.44125 15.8225 7.44125 16.0662 7.685C16.31 7.92875 16.31 8.325 16.0662 8.56875L14.6337 10H20C22.7575 10 25 12.2425 25 15C25 17.7575 22.7575 20 20 20Z" fill="#474747"/>
</g>
<defs>
<clipPath id="clip0_213_809">
<rect width="30" height="30" fill="white"/>
</clipPath>
</defs>
</svg>
