<svg width="30" height="43" viewBox="0 0 30 43" fill="none" xmlns="http://www.w3.org/2000/svg">
<path d="M24.7294 26.3888C27.9478 23.6363 29.9963 19.5552 29.9963 14.9976C29.9963 6.72777 23.2685 0 14.9986 0C6.72874 0 0.000972151 6.72777 0.000972151 14.9976C0.000972151 19.5534 2.05124 23.6345 5.26779 26.3888L0.050376 41.1712C-0.0696052 41.5082 0.0292029 41.8876 0.299161 42.1258C0.465017 42.2704 0.67322 42.3463 0.883187 42.3463C1.01728 42.3463 1.15314 42.3145 1.27842 42.2528L7.83151 38.9762L11.8015 42.154C12.0397 42.3445 12.3573 42.3957 12.6466 42.2969C12.9342 42.1946 13.1495 41.9546 13.2148 41.6564L14.434 36.169L16.8354 41.8099C16.943 42.0658 17.1636 42.2528 17.4318 42.3198C17.6964 42.3922 17.984 42.3251 18.1993 42.154L22.1693 38.9762L28.7224 42.2528C28.8476 42.3145 28.9817 42.3463 29.1176 42.3463C29.3276 42.3463 29.5358 42.2704 29.7016 42.1258C29.9716 41.8876 30.0686 41.5082 29.9504 41.1712L24.7294 26.3888ZM19.2809 27.5057L16.5478 28.1321C16.0379 28.1921 15.5227 28.2309 14.9986 28.2309C7.70094 28.2309 1.7654 22.2953 1.7654 14.9976C1.7654 7.69997 7.70094 1.76443 14.9986 1.76443C22.2963 1.76443 28.2318 7.69997 28.2318 14.9976C28.2318 20.7956 24.4807 25.7219 19.2809 27.5057ZM14.9986 5.29329C9.64711 5.29329 5.29426 9.6479 5.29426 14.9976C5.29426 20.3474 9.64711 24.702 14.9986 24.702C20.3501 24.702 24.703 20.3474 24.703 14.9976C24.703 9.6479 20.3501 5.29329 14.9986 5.29329ZM20.913 12.0916L13.8553 19.1494C13.6824 19.3223 13.4565 19.407 13.2307 19.407C13.0048 19.407 12.779 19.3205 12.6061 19.1494L9.0772 15.6205C8.73666 15.2764 8.73666 14.7189 9.08073 14.373C9.42479 14.029 9.98411 14.029 10.3282 14.373L13.2324 17.2773L19.6655 10.8442C20.0096 10.5001 20.5689 10.5001 20.913 10.8442C21.2571 11.1882 21.2571 11.7476 20.913 12.0916Z" fill="#474747"/>
</svg>
