<svg width="24" height="24" viewBox="0 0 24 24" fill="none" xmlns="http://www.w3.org/2000/svg">
<path d="M22.224 4.44701L12.224 9.44701C12.083 9.51701 11.917 9.51701 11.777 9.44701L1.777 4.44701C1.607 4.36201 1.5 4.18901 1.5 4.00001V1.00001C1.5 0.827011 1.59 0.666012 1.737 0.575012C1.884 0.484013 2.068 0.476011 2.223 0.553011L11.999 5.44101L21.775 0.553011C21.847 0.518011 21.923 0.500011 22 0.500011C22.091 0.500011 22.183 0.525013 22.263 0.575012C22.41 0.666012 22.5 0.827011 22.5 1.00001V4.00001C22.5 4.18901 22.393 4.36201 22.224 4.44701ZM22.224 11.447L12.224 16.447C12.083 16.517 11.917 16.517 11.777 16.447L1.777 11.447C1.607 11.362 1.5 11.189 1.5 11V8.00001C1.5 7.82701 1.59 7.66601 1.737 7.57501C1.884 7.48401 2.068 7.47701 2.223 7.55301L11.999 12.441L21.775 7.55301C21.846 7.51801 21.922 7.50001 21.999 7.50001C22.09 7.50001 22.182 7.52501 22.262 7.57501C22.41 7.66601 22.5 7.82701 22.5 8.00001V11C22.5 11.189 22.393 11.362 22.224 11.447ZM22.224 18.447L12.224 23.447C12.083 23.517 11.917 23.517 11.777 23.447L1.777 18.447C1.607 18.362 1.5 18.189 1.5 18V15C1.5 14.827 1.59 14.666 1.737 14.575C1.884 14.484 2.068 14.477 2.223 14.553L11.999 19.441L21.775 14.553C21.846 14.518 21.922 14.5 21.999 14.5C22.09 14.5 22.182 14.525 22.262 14.575C22.41 14.666 22.5 14.827 22.5 15V18C22.5 18.189 22.393 18.362 22.224 18.447Z" fill="white"/>
</svg>
