<svg width="31" height="30" viewBox="0 0 31 30" fill="none" xmlns="http://www.w3.org/2000/svg">
<g clip-path="url(#clip0_171_971)">
<path d="M15.8574 2.70117C19.8652 2.70117 20.3398 2.71875 21.916 2.78906C23.3809 2.85352 24.1719 3.09961 24.6992 3.30469C25.3965 3.57422 25.9004 3.90234 26.4219 4.42383C26.9492 4.95117 27.2715 5.44922 27.541 6.14648C27.7461 6.67383 27.9922 7.4707 28.0566 8.92969C28.127 10.5117 28.1445 10.9863 28.1445 14.9883C28.1445 18.9961 28.127 19.4707 28.0566 21.0469C27.9922 22.5117 27.7461 23.3027 27.541 23.8301C27.2715 24.5273 26.9434 25.0313 26.4219 25.5527C25.8945 26.0801 25.3965 26.4023 24.6992 26.6719C24.1719 26.877 23.375 27.123 21.916 27.1875C20.334 27.2578 19.8594 27.2754 15.8574 27.2754C11.8496 27.2754 11.375 27.2578 9.79883 27.1875C8.33399 27.123 7.54297 26.877 7.01563 26.6719C6.31836 26.4023 5.81445 26.0742 5.29297 25.5527C4.76562 25.0254 4.44336 24.5273 4.17383 23.8301C3.96875 23.3027 3.72266 22.5059 3.6582 21.0469C3.58789 19.4648 3.57031 18.9902 3.57031 14.9883C3.57031 10.9805 3.58789 10.5059 3.6582 8.92969C3.72266 7.46484 3.96875 6.67383 4.17383 6.14648C4.44336 5.44922 4.77148 4.94531 5.29297 4.42383C5.82031 3.89648 6.31836 3.57422 7.01563 3.30469C7.54297 3.09961 8.33984 2.85352 9.79883 2.78906C11.375 2.71875 11.8496 2.70117 15.8574 2.70117ZM15.8574 0C11.7852 0 11.2754 0.0175781 9.67578 0.0878906C8.08203 0.158203 6.98633 0.416016 6.03711 0.785156C5.04688 1.17187 4.20898 1.68164 3.37695 2.51953C2.53906 3.35156 2.0293 4.18945 1.64258 5.17383C1.27344 6.12891 1.01563 7.21875 0.945313 8.8125C0.875 10.418 0.857422 10.9277 0.857422 15C0.857422 19.0723 0.875 19.582 0.945313 21.1816C1.01563 22.7754 1.27344 23.8711 1.64258 24.8203C2.0293 25.8105 2.53906 26.6484 3.37695 27.4805C4.20898 28.3125 5.04688 28.8281 6.03125 29.209C6.98633 29.5781 8.07617 29.8359 9.66992 29.9062C11.2695 29.9766 11.7793 29.9941 15.8516 29.9941C19.9238 29.9941 20.4336 29.9766 22.0332 29.9062C23.627 29.8359 24.7227 29.5781 25.6719 29.209C26.6563 28.8281 27.4941 28.3125 28.3262 27.4805C29.1582 26.6484 29.6738 25.8105 30.0547 24.8262C30.4238 23.8711 30.6816 22.7813 30.752 21.1875C30.8223 19.5879 30.8398 19.0781 30.8398 15.0059C30.8398 10.9336 30.8223 10.4238 30.752 8.82422C30.6816 7.23047 30.4238 6.13477 30.0547 5.18555C29.6855 4.18945 29.1758 3.35156 28.3379 2.51953C27.5059 1.6875 26.668 1.17188 25.6836 0.791016C24.7285 0.421875 23.6387 0.164062 22.0449 0.09375C20.4395 0.0175781 19.9297 0 15.8574 0Z" fill="#BBBBBB"/>
<path d="M15.8574 7.29492C11.6035 7.29492 8.15234 10.7461 8.15234 15C8.15234 19.2539 11.6035 22.7051 15.8574 22.7051C20.1113 22.7051 23.5625 19.2539 23.5625 15C23.5625 10.7461 20.1113 7.29492 15.8574 7.29492ZM15.8574 19.998C13.0977 19.998 10.8594 17.7598 10.8594 15C10.8594 12.2402 13.0977 10.002 15.8574 10.002C18.6172 10.002 20.8555 12.2402 20.8555 15C20.8555 17.7598 18.6172 19.998 15.8574 19.998Z" fill="#BBBBBB"/>
<path d="M25.666 6.99018C25.666 7.98628 24.8574 8.78901 23.8672 8.78901C22.8711 8.78901 22.0684 7.98042 22.0684 6.99018C22.0684 5.99409 22.877 5.19135 23.8672 5.19135C24.8574 5.19135 25.666 5.99995 25.666 6.99018Z" fill="#BBBBBB"/>
</g>
<defs>
<clipPath id="clip0_171_971">
<rect width="30" height="30" fill="white" transform="translate(0.857422)"/>
</clipPath>
</defs>
</svg>
