<svg width="291" height="103" viewBox="0 0 291 103" fill="none" xmlns="http://www.w3.org/2000/svg">
<path d="M1.17188 11.9375H28.3594V21.3125H24.1406V19.4375C24.1406 19.0547 24.1055 18.6602 24.0352 18.2539C23.9727 17.8477 23.8711 17.4453 23.7305 17.0469C23.5977 16.6484 23.4023 16.3242 23.1445 16.0742C22.8867 15.8164 22.5938 15.6875 22.2656 15.6875H18.5156V37.25H22.2656V41H7.26562V37.25H11.0156V15.6875H7.26562C6.9375 15.6875 6.64453 15.8164 6.38672 16.0742C6.12891 16.3242 5.92969 16.6484 5.78906 17.0469C5.65625 17.4453 5.55469 17.8477 5.48438 18.2539C5.42188 18.6602 5.39062 19.0547 5.39062 19.4375V21.3125H1.17188V11.9375ZM35.8359 31.625C35.9062 32.5312 36.0547 33.3398 36.2812 34.0508C36.5078 34.7617 36.7812 35.3438 37.1016 35.7969C37.4297 36.25 37.8086 36.625 38.2383 36.9219C38.668 37.2109 39.1094 37.418 39.5625 37.543C40.0156 37.6602 40.5 37.7188 41.0156 37.7188C42.6641 37.7188 43.9492 37.4023 44.8711 36.7695C45.8008 36.1289 46.543 35.1445 47.0977 33.8164L50.2148 34.8945C49.9336 35.6523 49.5742 36.3672 49.1367 37.0391C48.707 37.7031 48.1875 38.3164 47.5781 38.8789C46.9688 39.4414 46.2891 39.9258 45.5391 40.332C44.7969 40.7305 43.957 41.043 43.0195 41.2695C42.082 41.4961 41.0938 41.6094 40.0547 41.6094C38.5156 41.6094 37.0586 41.3398 35.6836 40.8008C34.3164 40.2617 33.125 39.5117 32.1094 38.5508C31.1016 37.582 30.3008 36.3906 29.707 34.9766C29.1211 33.5625 28.8281 32.0234 28.8281 30.3594C28.8281 28.6953 29.1211 27.1484 29.707 25.7188C30.3008 24.2891 31.1016 23.0859 32.1094 22.1094C33.125 21.125 34.3164 20.3555 35.6836 19.8008C37.0586 19.2461 38.5156 18.9688 40.0547 18.9688C41.5938 18.9688 43.0469 19.2461 44.4141 19.8008C45.7891 20.3555 46.9805 21.125 47.9883 22.1094C49.0039 23.0859 49.8047 24.2891 50.3906 25.7188C50.9844 27.1484 51.2812 28.6953 51.2812 30.3594L50.9883 31.625H35.8359ZM35.918 27.875H44.1914C43.9883 26.0781 43.5391 24.7695 42.8438 23.9492C42.1484 23.1289 41.2266 22.7188 40.0781 22.7188C39.5078 22.7188 38.9961 22.8125 38.543 23C38.0898 23.1797 37.6836 23.4727 37.3242 23.8789C36.9648 24.2773 36.6641 24.8125 36.4219 25.4844C36.1875 26.1484 36.0195 26.9453 35.918 27.875ZM73.3125 26.8789V37.25H75.6562V41H68.3555L67.3125 38.5625C66.5156 39.7031 65.5898 40.4844 64.5352 40.9062C63.4883 41.3281 62.0234 41.5391 60.1406 41.5391C59.1641 41.5391 58.2539 41.3672 57.4102 41.0234C56.5742 40.6875 55.8594 40.2266 55.2656 39.6406C54.6797 39.0547 54.2188 38.3516 53.8828 37.5312C53.5547 36.7109 53.3906 35.832 53.3906 34.8945C53.3906 33.2773 54.0234 31.9375 55.2891 30.875C56.5547 29.8047 58.1719 29.2695 60.1406 29.2695C61.7266 29.2695 63.0391 29.4219 64.0781 29.7266C65.1172 30.0234 66.0078 30.5 66.75 31.1562V26.1875C66.75 25.4844 66.6523 24.8984 66.457 24.4297C66.2695 23.9531 65.9844 23.5898 65.6016 23.3398C65.2188 23.082 64.7891 22.9023 64.3125 22.8008C63.8359 22.6992 63.2656 22.6484 62.6016 22.6484C62.0703 22.6484 61.5898 22.7617 61.1602 22.9883C61.4023 23.4961 61.5234 24.0312 61.5234 24.5938C61.5234 25.6328 61.1562 26.5195 60.4219 27.2539C59.6953 27.9805 58.8125 28.3438 57.7734 28.3438C56.7344 28.3438 55.8477 27.9805 55.1133 27.2539C54.3867 26.5195 54.0234 25.6328 54.0234 24.5938C54.0234 24.0625 54.125 23.5625 54.3281 23.0938C54.5391 22.625 54.8281 22.2148 55.1953 21.8633C55.5078 21.5352 55.832 21.2422 56.168 20.9844C56.5039 20.7188 56.9258 20.457 57.4336 20.1992C57.9492 19.9336 58.5078 19.7148 59.1094 19.543C59.7109 19.3711 60.4297 19.2344 61.2656 19.1328C62.1094 19.0234 63.0312 18.9688 64.0312 18.9688C65.3281 18.9688 66.5469 19.1602 67.6875 19.543C68.8281 19.9258 69.8125 20.457 70.6406 21.1367C71.4688 21.8164 72.1211 22.6523 72.5977 23.6445C73.0742 24.6367 73.3125 25.7148 73.3125 26.8789ZM66.75 35.7969V34.1797C66.2656 33.7188 65.7188 33.332 65.1094 33.0195C64.5078 32.6992 63.9492 32.5391 63.4336 32.5391C62.3242 32.5391 61.543 32.7266 61.0898 33.1016C60.6367 33.4688 60.4102 34.0664 60.4102 34.8945C60.4102 35.8867 60.6055 36.6172 60.9961 37.0859C61.3867 37.5547 62.1133 37.7891 63.1758 37.7891C63.7773 37.7891 64.4023 37.5977 65.0508 37.2148C65.707 36.8242 66.2734 36.3516 66.75 35.7969ZM106.828 18.9688C107.922 18.9688 108.879 19.1172 109.699 19.4141C110.52 19.7109 111.191 20.1211 111.715 20.6445C112.238 21.1602 112.66 21.8203 112.98 22.625C113.309 23.4219 113.535 24.2812 113.66 25.2031C113.793 26.1172 113.859 27.1641 113.859 28.3438V37.25H116.203V41H104.953V37.25H107.297V27.875C107.297 26.6406 107.184 25.6797 106.957 24.9922C106.738 24.3047 106.418 23.832 105.996 23.5742C105.582 23.3164 105.016 23.1875 104.297 23.1875C103.625 23.1875 102.934 23.4805 102.223 24.0664C101.512 24.6523 100.84 25.4727 100.207 26.5273C100.246 27.0898 100.266 27.6953 100.266 28.3438V37.25H102.609V41H91.3594V37.25H93.7031V27.875C93.7031 26.6406 93.5898 25.6797 93.3633 24.9922C93.1445 24.3047 92.8242 23.832 92.4023 23.5742C91.9883 23.3164 91.4219 23.1875 90.7031 23.1875C90.0469 23.1875 89.375 23.4648 88.6875 24.0195C88 24.5742 87.3477 25.3477 86.7305 26.3398L86.6719 37.25H89.0156V41H77.7656V37.25H80.1094V23.1875H77.7656V19.4375H85.043L86.6836 22.6133C86.9727 22.0898 87.3047 21.6211 87.6797 21.207C88.0625 20.7852 88.5156 20.4023 89.0391 20.0586C89.5703 19.707 90.1914 19.4375 90.9023 19.25C91.6133 19.0625 92.3906 18.9688 93.2344 18.9688C94.1797 18.9688 95.0234 19.0781 95.7656 19.2969C96.5078 19.5078 97.1367 19.8242 97.6523 20.2461C98.1758 20.6602 98.6094 21.1562 98.9531 21.7344C99.2969 22.3047 99.5703 22.9688 99.7734 23.7266C99.9688 23.2188 100.195 22.7422 100.453 22.2969C100.719 21.8516 101.055 21.4219 101.461 21.0078C101.867 20.5859 102.316 20.2305 102.809 19.9414C103.309 19.6445 103.902 19.4102 104.59 19.2383C105.277 19.0586 106.023 18.9688 106.828 18.9688ZM130.734 11.9375H145.734V15.6875H142.922L146.789 27.793C147.18 29.0039 147.531 30.4375 147.844 32.0938C148.156 30.4453 148.508 29.0117 148.898 27.793L152.766 15.6875H148.547V11.9375H163.547V15.6875H160.266L164.133 27.793C164.523 29.0039 164.875 30.4375 165.188 32.0938C165.5 30.4453 165.852 29.0117 166.242 27.793L170.109 15.6875H166.359V11.9375H178.078V15.6875H174.797L165.34 41H160.816L155.215 26C154.793 24.8672 154.523 23.9297 154.406 23.1875C154.289 23.9297 154.02 24.8672 153.598 26L147.996 41H143.473L134.016 15.6875H130.734V11.9375ZM182.824 19.8477C184.199 19.3086 185.656 19.0391 187.195 19.0391C188.734 19.0391 190.188 19.3086 191.555 19.8477C192.93 20.3867 194.125 21.1406 195.141 22.1094C196.156 23.0703 196.957 24.2578 197.543 25.6719C198.137 27.0859 198.434 28.625 198.434 30.2891C198.434 31.9531 198.137 33.4922 197.543 34.9062C196.957 36.3203 196.156 37.5117 195.141 38.4805C194.125 39.4414 192.93 40.1914 191.555 40.7305C190.188 41.2695 188.734 41.5391 187.195 41.5391C185.656 41.5391 184.199 41.2695 182.824 40.7305C181.457 40.1914 180.266 39.4414 179.25 38.4805C178.242 37.5117 177.441 36.3203 176.848 34.9062C176.262 33.4922 175.969 31.9531 175.969 30.2891C175.969 28.625 176.262 27.0859 176.848 25.6719C177.441 24.2578 178.242 23.0703 179.25 22.1094C180.266 21.1406 181.457 20.3867 182.824 19.8477ZM187.195 22.7891C186.648 22.7891 186.16 22.8672 185.73 23.0234C185.301 23.1797 184.906 23.4375 184.547 23.7969C184.188 24.1562 183.891 24.6211 183.656 25.1914C183.43 25.7617 183.25 26.4727 183.117 27.3242C182.992 28.1758 182.93 29.1641 182.93 30.2891C182.93 31.4141 182.992 32.4023 183.117 33.2539C183.25 34.1055 183.43 34.8164 183.656 35.3867C183.891 35.957 184.188 36.4219 184.547 36.7812C184.906 37.1406 185.301 37.3984 185.73 37.5547C186.16 37.7109 186.648 37.7891 187.195 37.7891C187.883 37.7891 188.48 37.6602 188.988 37.4023C189.496 37.1367 189.938 36.7148 190.312 36.1367C190.695 35.5586 190.98 34.7812 191.168 33.8047C191.363 32.8281 191.461 31.6562 191.461 30.2891C191.461 28.9219 191.363 27.75 191.168 26.7734C190.98 25.7969 190.695 25.0195 190.312 24.4414C189.938 23.8633 189.496 23.4453 188.988 23.1875C188.48 22.9219 187.883 22.7891 187.195 22.7891ZM200.531 19.4375H207.809L209.285 22.2852C210.668 20.0742 212.625 18.9688 215.156 18.9688C216.852 18.9688 218.195 19.4922 219.188 20.5391C220.188 21.5781 220.688 22.9297 220.688 24.5938C220.688 25.6328 220.32 26.5195 219.586 27.2539C218.859 27.9805 217.977 28.3438 216.938 28.3438C215.898 28.3438 215.012 27.9805 214.277 27.2539C213.551 26.5195 213.188 25.6328 213.188 24.5938C213.188 24.1719 213.254 23.7656 213.387 23.375C213.176 23.25 212.953 23.1875 212.719 23.1875C212.195 23.1875 211.652 23.5312 211.09 24.2188C210.535 24.8984 210 25.918 209.484 27.2773L209.438 37.25H214.594V41H200.531V37.25H202.875V23.1875H200.531V19.4375ZM233.344 23.1875V19.4375H244.594V23.1875H241.523L236.871 28.2969L243.141 37.25H245.062V41H233.812V37.25H235.312L230.062 29.75L236.039 23.1875H233.344ZM220.219 11.9375H229.125V37.25H231.469V41H220.219V37.25H222.562V15.6875H220.219V11.9375ZM11.9297 63.9141C13.2031 63.6172 14.5391 63.4688 15.9375 63.4688C17.3359 63.4688 18.668 63.6172 19.9336 63.9141C21.207 64.2031 22.3555 64.6094 23.3789 65.1328C24.4102 65.6562 25.3594 66.2812 26.2266 67.0078C27.0938 67.7344 27.8438 68.5391 28.4766 69.4219C29.1094 70.2969 29.6445 71.2305 30.082 72.2227C30.5273 73.207 30.8594 74.2266 31.0781 75.2812C31.2969 76.3281 31.4062 77.3906 31.4062 78.4688C31.4062 79.5469 31.2969 80.6133 31.0781 81.668C30.8594 82.7148 30.5273 83.7344 30.082 84.7266C29.6445 85.7109 29.1094 86.6445 28.4766 87.5273C27.8438 88.4023 27.0938 89.2031 26.2266 89.9297C25.3594 90.6562 24.4102 91.2812 23.3789 91.8047C22.3555 92.3281 21.207 92.7344 19.9336 93.0234C18.668 93.3203 17.3359 93.4688 15.9375 93.4688C14.5391 93.4688 13.2031 93.3203 11.9297 93.0234C10.6641 92.7344 9.51562 92.3281 8.48438 91.8047C7.46094 91.2812 6.51562 90.6562 5.64844 89.9297C4.78125 89.2031 4.03125 88.4023 3.39844 87.5273C2.76562 86.6445 2.22656 85.7109 1.78125 84.7266C1.34375 83.7344 1.01562 82.7148 0.796875 81.668C0.578125 80.6133 0.46875 79.5469 0.46875 78.4688C0.46875 77.3906 0.578125 76.3281 0.796875 75.2812C1.01562 74.2266 1.34375 73.207 1.78125 72.2227C2.22656 71.2305 2.76562 70.2969 3.39844 69.4219C4.03125 68.5391 4.78125 67.7344 5.64844 67.0078C6.51562 66.2812 7.46094 65.6562 8.48438 65.1328C9.51562 64.6094 10.6641 64.2031 11.9297 63.9141ZM18.5156 67.8047C17.7422 67.4141 16.8828 67.2188 15.9375 67.2188C14.9922 67.2188 14.1289 67.4141 13.3477 67.8047C12.5742 68.1875 11.9141 68.7188 11.3672 69.3984C10.8281 70.0781 10.3711 70.8945 9.99609 71.8477C9.62109 72.793 9.34375 73.8203 9.16406 74.9297C8.99219 76.0391 8.90625 77.2188 8.90625 78.4688C8.90625 80.0312 9.05469 81.4883 9.35156 82.8398C9.65625 84.1836 10.0938 85.3711 10.6641 86.4023C11.2344 87.4336 11.9688 88.2461 12.8672 88.8398C13.7734 89.4258 14.7969 89.7188 15.9375 89.7188C17.0781 89.7188 18.0977 89.4258 18.9961 88.8398C19.9023 88.2461 20.6406 87.4336 21.2109 86.4023C21.7812 85.3711 22.2148 84.1836 22.5117 82.8398C22.8164 81.4883 22.9688 80.0312 22.9688 78.4688C22.9688 77.2188 22.8789 76.0391 22.6992 74.9297C22.5273 73.8203 22.2539 72.793 21.8789 71.8477C21.5039 70.8945 21.043 70.0781 20.4961 69.3984C19.957 68.7188 19.2969 68.1875 18.5156 67.8047ZM33.75 71.4375H41.0273L42.5039 74.2852C43.8867 72.0742 45.8438 70.9688 48.375 70.9688C50.0703 70.9688 51.4141 71.4922 52.4062 72.5391C53.4062 73.5781 53.9062 74.9297 53.9062 76.5938C53.9062 77.6328 53.5391 78.5195 52.8047 79.2539C52.0781 79.9805 51.1953 80.3438 50.1562 80.3438C49.1172 80.3438 48.2305 79.9805 47.4961 79.2539C46.7695 78.5195 46.4062 77.6328 46.4062 76.5938C46.4062 76.1719 46.4727 75.7656 46.6055 75.375C46.3945 75.25 46.1719 75.1875 45.9375 75.1875C45.4141 75.1875 44.8711 75.5312 44.3086 76.2188C43.7539 76.8984 43.2188 77.918 42.7031 79.2773L42.6562 89.25H47.8125V93H33.75V89.25H36.0938V75.1875H33.75V71.4375ZM70.3125 67.2188C70.3125 66.1797 70.6758 65.2969 71.4023 64.5703C72.1367 63.8359 73.0234 63.4688 74.0625 63.4688C74.4531 63.4688 74.8359 63.5273 75.2109 63.6445C75.6953 63.793 76.1172 63.9883 76.4766 64.2305C76.8438 64.4727 77.1406 64.7383 77.3672 65.0273C77.5938 65.3164 77.7773 65.6523 77.918 66.0352C78.0586 66.4102 78.1523 66.7891 78.1992 67.1719C78.2539 67.5469 78.2812 67.9648 78.2812 68.4258C78.2812 68.9023 78.1875 69.4023 78 69.9258C77.8125 70.4492 77.5625 70.9453 77.25 71.4141C76.9453 71.875 76.6094 72.3086 76.2422 72.7148C75.8828 73.1133 75.5117 73.4648 75.1289 73.7695C76.293 74.918 76.875 76.3281 76.875 78C76.875 79.25 76.6016 80.3633 76.0547 81.3398C75.5156 82.3086 74.7695 83.0938 73.8164 83.6953C72.8633 84.2891 71.7734 84.7383 70.5469 85.043C69.3281 85.3477 68 85.5 66.5625 85.5C65.375 85.5 64.2383 85.3672 63.1523 85.1016C62.4414 85.2109 61.8945 85.4023 61.5117 85.6758C61.1289 85.9492 60.9375 86.2031 60.9375 86.4375C60.9375 86.6719 61.0352 86.8867 61.2305 87.082C61.4258 87.2773 61.6406 87.375 61.875 87.375H68.4375C71.7422 87.375 74.1289 87.8477 75.5977 88.793C77.0742 89.7383 77.8125 91.2969 77.8125 93.4688C77.8125 94.5156 77.6836 95.4648 77.4258 96.3164C77.168 97.1758 76.8164 97.9062 76.3711 98.5078C75.9336 99.1172 75.3906 99.6523 74.7422 100.113C74.0938 100.582 73.4141 100.957 72.7031 101.238C71.9922 101.52 71.1992 101.746 70.3242 101.918C69.4492 102.09 68.6016 102.207 67.7812 102.27C66.9609 102.34 66.0859 102.375 65.1562 102.375C63.6719 102.375 62.3281 102.211 61.125 101.883C59.9297 101.562 58.9453 101.121 58.1719 100.559C57.4062 99.9961 56.8164 99.3477 56.4023 98.6133C55.9883 97.8867 55.7812 97.1094 55.7812 96.2812C55.7812 94.5859 56.7539 93.2617 58.6992 92.3086C57.9414 91.9258 57.3438 91.4023 56.9062 90.7383C56.4688 90.0664 56.25 89.2578 56.25 88.3125C56.25 87.2578 56.5547 86.3008 57.1641 85.4414C57.7734 84.582 58.5938 83.957 59.625 83.5664C58.7109 82.918 57.9961 82.1289 57.4805 81.1992C56.9727 80.2695 56.7188 79.2031 56.7188 78C56.7188 77 56.8945 76.1016 57.2461 75.3047C57.6055 74.5078 58.0859 73.8477 58.6875 73.3242C59.2969 72.793 60.0234 72.3555 60.8672 72.0117C61.7188 71.6602 62.6133 71.4102 63.5508 71.2617C64.4883 71.1133 65.4922 71.0391 66.5625 71.0391C69.0312 71.0391 71.1367 71.4453 72.8789 72.2578C73.2773 71.7969 73.5859 71.3633 73.8047 70.957C72.8281 70.8945 72 70.5039 71.3203 69.7852C70.6484 69.0664 70.3125 68.2109 70.3125 67.2188ZM66.7969 74.7188C65.6953 74.7188 64.832 75.0352 64.207 75.668C63.5898 76.3008 63.2812 77.2148 63.2812 78.4102C63.2812 79.6133 63.5938 80.5508 64.2188 81.2227C64.8438 81.8867 65.7031 82.2188 66.7969 82.2188C67.8828 82.2188 68.7383 81.8828 69.3633 81.2109C69.9961 80.5312 70.3125 79.5977 70.3125 78.4102C70.3125 77.2305 70 76.3203 69.375 75.6797C68.75 75.0391 67.8906 74.7188 66.7969 74.7188ZM63.2227 93C62.3242 93.6406 61.875 94.4219 61.875 95.3438C61.875 96.2734 62.1641 96.8945 62.7422 97.207C63.3203 97.5273 64.4375 97.6875 66.0938 97.6875C69.8438 97.6875 71.7188 96.75 71.7188 94.875C71.7188 94.4062 71.5234 93.9766 71.1328 93.5859C70.7422 93.1953 70.3125 93 69.8438 93H63.2227ZM99.6094 78.8789V89.25H101.953V93H94.6523L93.6094 90.5625C92.8125 91.7031 91.8867 92.4844 90.832 92.9062C89.7852 93.3281 88.3203 93.5391 86.4375 93.5391C85.4609 93.5391 84.5508 93.3672 83.707 93.0234C82.8711 92.6875 82.1562 92.2266 81.5625 91.6406C80.9766 91.0547 80.5156 90.3516 80.1797 89.5312C79.8516 88.7109 79.6875 87.832 79.6875 86.8945C79.6875 85.2773 80.3203 83.9375 81.5859 82.875C82.8516 81.8047 84.4688 81.2695 86.4375 81.2695C88.0234 81.2695 89.3359 81.4219 90.375 81.7266C91.4141 82.0234 92.3047 82.5 93.0469 83.1562V78.1875C93.0469 77.4844 92.9492 76.8984 92.7539 76.4297C92.5664 75.9531 92.2812 75.5898 91.8984 75.3398C91.5156 75.082 91.0859 74.9023 90.6094 74.8008C90.1328 74.6992 89.5625 74.6484 88.8984 74.6484C88.3672 74.6484 87.8867 74.7617 87.457 74.9883C87.6992 75.4961 87.8203 76.0312 87.8203 76.5938C87.8203 77.6328 87.4531 78.5195 86.7188 79.2539C85.9922 79.9805 85.1094 80.3438 84.0703 80.3438C83.0312 80.3438 82.1445 79.9805 81.4102 79.2539C80.6836 78.5195 80.3203 77.6328 80.3203 76.5938C80.3203 76.0625 80.4219 75.5625 80.625 75.0938C80.8359 74.625 81.125 74.2148 81.4922 73.8633C81.8047 73.5352 82.1289 73.2422 82.4648 72.9844C82.8008 72.7188 83.2227 72.457 83.7305 72.1992C84.2461 71.9336 84.8047 71.7148 85.4062 71.543C86.0078 71.3711 86.7266 71.2344 87.5625 71.1328C88.4062 71.0234 89.3281 70.9688 90.3281 70.9688C91.625 70.9688 92.8438 71.1602 93.9844 71.543C95.125 71.9258 96.1094 72.457 96.9375 73.1367C97.7656 73.8164 98.418 74.6523 98.8945 75.6445C99.3711 76.6367 99.6094 77.7148 99.6094 78.8789ZM93.0469 87.7969V86.1797C92.5625 85.7188 92.0156 85.332 91.4062 85.0195C90.8047 84.6992 90.2461 84.5391 89.7305 84.5391C88.6211 84.5391 87.8398 84.7266 87.3867 85.1016C86.9336 85.4688 86.707 86.0664 86.707 86.8945C86.707 87.8867 86.9023 88.6172 87.293 89.0859C87.6836 89.5547 88.4102 89.7891 89.4727 89.7891C90.0742 89.7891 90.6992 89.5977 91.3477 89.2148C92.0039 88.8242 92.5703 88.3516 93.0469 87.7969ZM119.531 70.9688C120.625 70.9688 121.582 71.1172 122.402 71.4141C123.223 71.7109 123.895 72.1211 124.418 72.6445C124.941 73.1602 125.363 73.8203 125.684 74.625C126.012 75.4219 126.238 76.2812 126.363 77.2031C126.496 78.1172 126.562 79.1641 126.562 80.3438V89.25H128.906V93H117.656V89.25H120V79.875C120 78.6406 119.887 77.6797 119.66 76.9922C119.441 76.3047 119.121 75.832 118.699 75.5742C118.285 75.3164 117.719 75.1875 117 75.1875C116.344 75.1875 115.672 75.4648 114.984 76.0195C114.297 76.5742 113.645 77.3477 113.027 78.3398L112.969 89.25H115.312V93H104.062V89.25H106.406V75.1875H104.062V71.4375H111.34L112.98 74.6133C113.27 74.0898 113.602 73.6211 113.977 73.207C114.359 72.7852 114.812 72.4023 115.336 72.0586C115.867 71.707 116.488 71.4375 117.199 71.25C117.91 71.0625 118.688 70.9688 119.531 70.9688ZM133.746 68.9414C133.02 68.207 132.656 67.3203 132.656 66.2812C132.656 65.2422 133.02 64.3594 133.746 63.6328C134.48 62.8984 135.367 62.5312 136.406 62.5312C137.445 62.5312 138.328 62.8984 139.055 63.6328C139.789 64.3594 140.156 65.2422 140.156 66.2812C140.156 67.3203 139.789 68.207 139.055 68.9414C138.328 69.668 137.445 70.0312 136.406 70.0312C135.367 70.0312 134.48 69.668 133.746 68.9414ZM130.781 71.4375H139.688V89.25H142.031V93H130.781V89.25H133.125V75.1875H130.781V71.4375ZM144.375 71.4375H162.656V73.5938L153.668 87.375C153.371 87.8281 152.898 88.4531 152.25 89.25H158.906V83.625H162.656V93H143.906V90.8438L152.895 77.0625C153.199 76.5938 153.703 75.9688 154.406 75.1875H148.125V80.8125H144.375V71.4375ZM172.711 83.625C172.781 84.5312 172.93 85.3398 173.156 86.0508C173.383 86.7617 173.656 87.3438 173.977 87.7969C174.305 88.25 174.684 88.625 175.113 88.9219C175.543 89.2109 175.984 89.418 176.438 89.543C176.891 89.6602 177.375 89.7188 177.891 89.7188C179.539 89.7188 180.824 89.4023 181.746 88.7695C182.676 88.1289 183.418 87.1445 183.973 85.8164L187.09 86.8945C186.809 87.6523 186.449 88.3672 186.012 89.0391C185.582 89.7031 185.062 90.3164 184.453 90.8789C183.844 91.4414 183.164 91.9258 182.414 92.332C181.672 92.7305 180.832 93.043 179.895 93.2695C178.957 93.4961 177.969 93.6094 176.93 93.6094C175.391 93.6094 173.934 93.3398 172.559 92.8008C171.191 92.2617 170 91.5117 168.984 90.5508C167.977 89.582 167.176 88.3906 166.582 86.9766C165.996 85.5625 165.703 84.0234 165.703 82.3594C165.703 80.6953 165.996 79.1484 166.582 77.7188C167.176 76.2891 167.977 75.0859 168.984 74.1094C170 73.125 171.191 72.3555 172.559 71.8008C173.934 71.2461 175.391 70.9688 176.93 70.9688C178.469 70.9688 179.922 71.2461 181.289 71.8008C182.664 72.3555 183.855 73.125 184.863 74.1094C185.879 75.0859 186.68 76.2891 187.266 77.7188C187.859 79.1484 188.156 80.6953 188.156 82.3594L187.863 83.625H172.711ZM172.793 79.875H181.066C180.863 78.0781 180.414 76.7695 179.719 75.9492C179.023 75.1289 178.102 74.7188 176.953 74.7188C176.383 74.7188 175.871 74.8125 175.418 75C174.965 75.1797 174.559 75.4727 174.199 75.8789C173.84 76.2773 173.539 76.8125 173.297 77.4844C173.062 78.1484 172.895 78.9453 172.793 79.875ZM190.031 71.4375H197.309L198.785 74.2852C200.168 72.0742 202.125 70.9688 204.656 70.9688C206.352 70.9688 207.695 71.4922 208.688 72.5391C209.688 73.5781 210.188 74.9297 210.188 76.5938C210.188 77.6328 209.82 78.5195 209.086 79.2539C208.359 79.9805 207.477 80.3438 206.438 80.3438C205.398 80.3438 204.512 79.9805 203.777 79.2539C203.051 78.5195 202.688 77.6328 202.688 76.5938C202.688 76.1719 202.754 75.7656 202.887 75.375C202.676 75.25 202.453 75.1875 202.219 75.1875C201.695 75.1875 201.152 75.5312 200.59 76.2188C200.035 76.8984 199.5 77.918 198.984 79.2773L198.938 89.25H204.094V93H190.031V89.25H192.375V75.1875H190.031V71.4375Z" fill="white"/>
<g clip-path="url(#clip0_220_928)">
<path d="M228 69.5H225.5V73.5H228C228.827 73.5 229.5 72.827 229.5 72V71C229.5 70.173 228.827 69.5 228 69.5ZM227 61.5C220.659 61.5 215.5 66.659 215.5 73C215.5 79.341 220.659 84.5 227 84.5C233.341 84.5 238.5 79.341 238.5 73C238.5 66.659 233.341 61.5 227 61.5ZM230.5 72C230.5 72.817 230.106 73.543 229.499 74C230.106 74.457 230.5 75.183 230.5 76V77C230.5 77.276 230.276 77.5 230 77.5C229.724 77.5 229.5 77.276 229.5 77V76C229.5 75.173 228.827 74.5 228.001 74.5H225.5V77C225.5 77.276 225.276 77.5 225 77.5C224.724 77.5 224.5 77.276 224.5 77V74.07C224.497 74.047 224.495 74.024 224.495 74C224.495 73.976 224.497 73.953 224.5 73.93V69C224.5 68.724 224.724 68.5 225 68.5H228C229.379 68.5 230.5 69.622 230.5 71V72Z" fill="white"/>
</g>
<defs>
<clipPath id="clip0_220_928">
<rect width="24" height="24" fill="white" transform="translate(215 61)"/>
</clipPath>
</defs>
</svg>
